<svg version="1.2" xmlns="http://www.w3.org/2000/svg" viewBox="0 0 784 869" width="784" height="869">
	<title>54475-ai-svg</title>
	<style>
		.s0 { fill: none;stroke: #fefefe;stroke-linecap: round;stroke-linejoin: round;stroke-width: 1.5 } 
		.s1 { fill: none;stroke: #fefefe;stroke-linecap: round;stroke-linejoin: round;stroke-width: 1.1 } 
		.s2 { fill: none;stroke: #fefefe;stroke-linecap: round;stroke-linejoin: round;stroke-width: 1.1;stroke-dasharray: 3,3 } 
		.s3 { fill: none;stroke: #fefefe;stroke-linecap: round;stroke-linejoin: round;stroke-width: 1.2 } 
		.s4 { fill: none;stroke: #fefefe;stroke-linecap: round;stroke-linejoin: round;stroke-width: 1.4 } 
		.s5 { fill: #d69a7b } 
		.s6 { fill: #0c4049 } 
		.s7 { fill: #18151d } 
		.s8 { fill: #2a2631 } 
		.s9 { fill: #393641 } 
		.s10 { fill: #faaf3c } 
		.s11 { fill: #f6931d } 
		.s12 { fill: #8bd7f7 } 
		.s13 { fill: #fefefe } 
		.s14 { fill: #f9b28e } 
		.s15 { fill: #ed2c2b } 
		.s16 { fill: #c32221 } 
		.s17 { mix-blend-mode: soft-light;fill: #fefefe } 
		.s18 { fill: #af2323 } 
		.s19 { fill: #891514 } 
	</style>
	<g id="Capa 1">
		<g id="&lt;Group&gt;">
		</g>
		<g id="&lt;Group&gt;">
			<g id="&lt;Group&gt;">
				<path id="&lt;Path&gt;" class="s0" d="m651 817.7v43.9"/>
				<path id="&lt;Path&gt;" class="s0" d="m670.9 839.5h-39.8"/>
				<path id="&lt;Path&gt;" class="s0" d="m664.9 824.1l-27.9 31.1"/>
				<path id="&lt;Path&gt;" class="s0" d="m664.9 855.2l-27.9-31.1"/>
			</g>
			<g id="&lt;Group&gt;">
				<path id="&lt;Path&gt;" class="s0" d="m753.9 550.4v43.9"/>
				<path id="&lt;Path&gt;" class="s0" d="m773.8 572.3h-39.6"/>
				<path id="&lt;Path&gt;" class="s0" d="m768 556.8l-28 31.1"/>
				<path id="&lt;Path&gt;" class="s0" d="m768 587.9l-28-31.1"/>
			</g>
			<g id="&lt;Group&gt;">
				<g id="&lt;Group&gt;">
					<g id="&lt;Group&gt;">
						<path id="&lt;Path&gt;" class="s1" d="m613.5 720.3h4.4"/>
						<path id="&lt;Path&gt;" class="s2" d="m624.9 720.3h10.5"/>
						<path id="&lt;Path&gt;" class="s1" d="m638.8 720.3h4.6"/>
					</g>
				</g>
				<g id="&lt;Group&gt;">
					<g id="&lt;Group&gt;">
						<path id="&lt;Path&gt;" class="s1" d="m623.9 707.1h4.4"/>
						<path id="&lt;Path&gt;" class="s2" d="m635.2 707.1h10.6"/>
						<path id="&lt;Path&gt;" class="s1" d="m649.2 707.1h4.6"/>
					</g>
				</g>
			</g>
			<g id="&lt;Group&gt;">
				<g id="&lt;Group&gt;">
					<g id="&lt;Group&gt;">
						<path id="&lt;Path&gt;" class="s1" d="m621.1 460.8h4.4"/>
						<path id="&lt;Path&gt;" class="s2" d="m632.4 460.8h10.6"/>
						<path id="&lt;Path&gt;" class="s1" d="m646.4 460.8h4.6"/>
					</g>
				</g>
				<g id="&lt;Group&gt;">
					<g id="&lt;Group&gt;">
						<path id="&lt;Path&gt;" class="s1" d="m631.4 447.8h4.4"/>
						<path id="&lt;Path&gt;" class="s2" d="m642.8 447.8h10.6"/>
						<path id="&lt;Path&gt;" class="s1" d="m656.7 447.8h4.6"/>
					</g>
				</g>
			</g>
			<g id="&lt;Group&gt;">
				<path id="&lt;Path&gt;" class="s0" d="m707.5 156.9v44.1"/>
				<path id="&lt;Path&gt;" class="s0" d="m727.2 179h-39.6"/>
				<path id="&lt;Path&gt;" class="s0" d="m721.5 163.5l-28.1 30.9"/>
				<path id="&lt;Path&gt;" class="s0" d="m721.5 194.4l-28.1-30.9"/>
			</g>
			<g id="&lt;Group&gt;">
				<path id="&lt;Path&gt;" class="s3" d="m333.6 36.6v35.8"/>
				<path id="&lt;Path&gt;" class="s3" d="m349.5 54.5h-32.1"/>
				<path id="&lt;Path&gt;" class="s3" d="m344.9 41.9l-22.9 25.2"/>
				<path id="&lt;Path&gt;" class="s3" d="m344.9 67.1l-22.9-25.2"/>
			</g>
			<g id="&lt;Group&gt;">
				<g id="&lt;Group&gt;">
					<g id="&lt;Group&gt;">
						<path id="&lt;Path&gt;" class="s1" d="m574.5 67.5h4.4"/>
						<path id="&lt;Path&gt;" class="s2" d="m585.9 67.5h10.5"/>
						<path id="&lt;Path&gt;" class="s1" d="m599.8 67.5h4.6"/>
					</g>
				</g>
				<g id="&lt;Group&gt;">
					<g id="&lt;Group&gt;">
						<path id="&lt;Path&gt;" class="s1" d="m584.9 54.5h4.3"/>
						<path id="&lt;Path&gt;" class="s2" d="m596.2 54.5h10.6"/>
						<path id="&lt;Path&gt;" class="s1" d="m610.3 54.5h4.4"/>
					</g>
				</g>
			</g>
			<g id="&lt;Group&gt;">
				<path id="&lt;Path&gt;" class="s4" d="m120.9 755.4v40.9"/>
				<path id="&lt;Path&gt;" class="s4" d="m102.4 776h36.8"/>
				<path id="&lt;Path&gt;" class="s4" d="m107.8 761.4l26.1 28.9"/>
				<path id="&lt;Path&gt;" class="s4" d="m107.8 790.3l26.1-28.9"/>
			</g>
			<g id="&lt;Group&gt;">
				<path id="&lt;Path&gt;" class="s4" d="m25.1 506.9v41.1"/>
				<path id="&lt;Path&gt;" class="s4" d="m6.6 527.5h36.9"/>
				<path id="&lt;Path&gt;" class="s4" d="m12 512.9l26.1 28.9"/>
				<path id="&lt;Path&gt;" class="s4" d="m12 541.8l26.1-28.9"/>
			</g>
			<g id="&lt;Group&gt;">
				<g id="&lt;Group&gt;">
					<g id="&lt;Group&gt;">
						<path id="&lt;Path&gt;" class="s1" d="m155.8 665h-4.2"/>
						<path id="&lt;Path&gt;" class="s2" d="m145 665h-9.7"/>
						<path id="&lt;Path&gt;" class="s1" d="m132.1 665h-4.2"/>
					</g>
				</g>
				<g id="&lt;Group&gt;">
					<g id="&lt;Group&gt;">
						<path id="&lt;Path&gt;" class="s1" d="m146 652.8h-4.2"/>
						<path id="&lt;Path&gt;" class="s2" d="m135.5 652.8h-9.8"/>
						<path id="&lt;Path&gt;" class="s1" d="m122.5 652.8h-4.2"/>
					</g>
				</g>
			</g>
			<g id="&lt;Group&gt;">
				<g id="&lt;Group&gt;">
					<g id="&lt;Group&gt;">
						<path id="&lt;Path&gt;" class="s1" d="m148.6 423.7h-4"/>
						<path id="&lt;Path&gt;" class="s2" d="m138 423.7h-9.7"/>
						<path id="&lt;Path&gt;" class="s1" d="m125.1 423.7h-4.2"/>
					</g>
				</g>
				<g id="&lt;Group&gt;">
					<g id="&lt;Group&gt;">
						<path id="&lt;Path&gt;" class="s1" d="m139 411.6h-4.1"/>
						<path id="&lt;Path&gt;" class="s2" d="m128.5 411.6h-9.8"/>
						<path id="&lt;Path&gt;" class="s1" d="m115.3 411.6h-4.1"/>
					</g>
				</g>
			</g>
			<g id="&lt;Group&gt;">
				<path id="&lt;Path&gt;" class="s4" d="m68.3 141.2v40.9"/>
				<path id="&lt;Path&gt;" class="s4" d="m49.8 161.7h36.9"/>
				<path id="&lt;Path&gt;" class="s4" d="m55.2 147.2l26.1 28.9"/>
				<path id="&lt;Path&gt;" class="s4" d="m55.2 176.1l26.1-28.9"/>
			</g>
			<g id="&lt;Group&gt;">
				<g id="&lt;Group&gt;">
					<g id="&lt;Group&gt;">
						<path id="&lt;Path&gt;" class="s1" d="m192 58h-4.2"/>
						<path id="&lt;Path&gt;" class="s2" d="m181.2 58h-9.7"/>
						<path id="&lt;Path&gt;" class="s1" d="m168.3 58h-4.2"/>
					</g>
				</g>
				<g id="&lt;Group&gt;">
					<g id="&lt;Group&gt;">
						<path id="&lt;Path&gt;" class="s1" d="m182.2 45.9h-4.1"/>
						<path id="&lt;Path&gt;" class="s2" d="m171.7 45.9h-9.8"/>
						<path id="&lt;Path&gt;" class="s1" d="m158.7 45.9h-4.1"/>
					</g>
				</g>
			</g>
		</g>
		<g id="&lt;Group&gt;">
			<g id="&lt;Group&gt;">
				<g id="&lt;Group&gt;">
					<path id="&lt;Path&gt;" class="s5" d="m318.1 469.2c0 0 18.7-22.8 13.2-27.7-26.1-22.6-12.9-72.9 10.9-52.4 1.9 3.4 19.2 3.4-4.2-15.2-15.2-12.1-25.2-66 7.5-63.2 8.1 0.6 79.9 44.5 77.2 38.3-7.5-17.4-95.4-62-116.7-74.5-23.3-13.7-9.7-49 9.9-45.2 34.2 6.6 129.7 71.8 157.4 117 18.9 30.6 33.2 29.1 33.2 29.1l-0.2 0.3c4.3-3.2 7-4.7 7-4.7 0 0-21.8-82.9 23-102.5 11.3-5.1 16.4 1.3 17.6 30.3 2.1 52.1 1.6 119.7 11.4 166.1 7.9 37.1-2.7 78.2-2.7 78.2l-75.5 62.2c0 0-60.2-19.2-78.2-34.3-29.8-24.5-16-41.8-40.5-48.4-40.1-10.6-50.3-53.4-50.3-53.4z"/>
					<path id="&lt;Path&gt;" class="s5" d="m473.8 588l80.5-65.4 117.1 177.5-80.2 65.2z"/>
					<path id="&lt;Path&gt;" class="s6" d="m585.7 869l-95.7-230.5 106.6-86.5 172.3 317z"/>
				</g>
				<g id="&lt;Group&gt;">
					<path id="&lt;Path&gt;" class="s7" d="m518.1 191v32.6c0 3.2-3.8 5.9-8.4 5.9h-0.8v-44.5h0.8c4.6 0 8.4 2.6 8.4 6z"/>
					<path id="&lt;Path&gt;" class="s7" d="m518.1 242.1v32.6c0 3.4-3.8 6-8.4 6h-0.8v-44.4h0.8c4.6 0 8.4 2.6 8.4 5.8z"/>
					<path id="&lt;Path&gt;" class="s8" d="m338 150.2c0-3.9 3.1-7 7-7h159.6c3.9 0 7 3.1 7 7v403.6c0 3.9-3.1 7-7 7h-159.6c-3.9 0-7-3.1-7-7z"/>
					<path id="&lt;Path&gt;" class="s9" d="m504.1 546.3c0 7.9-5.4 14.5-12.1 14.5h-134.5c-6.6 0-12-6.6-12-14.5v-382.4c0-8.1 5.4-14.5 12-14.5h134.5c6.7 0 12.1 6.4 12.1 14.5z"/>
					<path id="&lt;Path&gt;" class="s10" d="m345.5 172.4h158.6v348.5h-158.6z"/>
					<path id="&lt;Path&gt;" class="s11" d="m504.1 513.5v7.4h-158.6v-348.5h7.4v341.1z"/>
					<path id="&lt;Path&gt;" class="s12" d="m480.1 164.8c-2.3 0-4.2-2.1-4.2-4.7 0-2.6 1.9-4.7 4.2-4.7 2.4 0 4.3 2.1 4.3 4.7 0 2.6-1.9 4.7-4.3 4.7z"/>
					<path id="&lt;Path&gt;" class="s13" d="m479.5 160.1c-0.9 0-1.7-0.9-1.7-2 0-1.1 0.8-1.9 1.7-1.9 1 0 1.8 0.8 1.8 1.9 0 1.1-0.8 2-1.8 2z"/>
					<path id="&lt;Path&gt;" class="s7" d="m403.6 143.2h42.4v12.2h-42.4z"/>
					<path id="&lt;Path&gt;" class="s7" d="m407.9 529.3c0-1.1 0.9-2 2-2h29.8c1.1 0 2 0.9 2 2v22.7c0 1.2-0.9 2-2 2h-29.8c-1.1 0-2-0.8-2-2z"/>
				</g>
				<path id="&lt;Path&gt;" class="s14" d="m371 467c-12.1 4.1-35.9 9.6-45.1 12.2-9.2 2.5-16-42.6-4.8-45.8 11.3-3 31.5-4.5 41.2-6 16.5-2.3 24.5 33.9 8.7 39.6z"/>
				<path id="&lt;Path&gt;" class="s14" d="m373.2 419.8c-12.3 4.4-36.1 9.8-45.3 12.3-9 2.5-11.2-44.1 0-47.1 11.1-3 26.9-3.2 36.6-4.5 16.5-2.5 24.3 33.9 8.7 39.3z"/>
				<g id="&lt;Group&gt;">
					<path id="&lt;Path&gt;" class="s15" d="m359.2 337.6c0-2.8 2.3-5 5-5h133.6c2.7 0 5 2.2 5 5v35c0 2.8-2.3 5-5 5h-133.6c-2.7 0-5-2.2-5-5z"/>
					<path id="&lt;Path&gt;" class="s16" d="m502.8 342.6v25c0 5.5-4.1 10-9.1 10h-125.5c-4.2 0-7.6-3.2-8.6-7.5q0.7 0.2 1.5 0.2h125.5c4.9 0 9-4.5 9-10v-25.1q0-1.3-0.3-2.6c4.2 0.9 7.5 5.1 7.5 10z"/>
					<g id="&lt;Group&gt;">
						<path id="&lt;Compound Path&gt;" fill-rule="evenodd" class="s13" d="m377.9 342.6h5.1q5 0 7 2.4 2.4 2.7 2.4 9.8 0 7.2-2.6 10-2 2.5-6.9 2.5h-5q-0.3 0-0.5-0.2-0.1-0.2-0.1-0.6v-23.2q0-0.7 0.6-0.7zm3.8 20.7h1.2q2.7 0 3.9-1.7 1-1.9 1-7 0-4.7-1-6.4-1.2-1.7-3.9-1.7h-1.2z"/>
						<path id="&lt;Compound Path&gt;" fill-rule="evenodd" class="s13" d="m411.4 354.8q0 6.4-2.2 9.8-2 3.2-5.9 3.2-3.8 0-6-3.2-2-3.4-2-9.8 0-6.4 2.2-9.6 2-3.2 5.8-3.2 3.9 0 5.9 3.2 2.2 3.4 2.2 9.6zm-8.1 9.3q3.5 0 3.5-9.3 0-9-3.5-9-3.4 0-3.4 9 0 9.3 3.4 9.3z"/>
						<path id="&lt;Compound Path&gt;" class="s13" d="m430.7 343.3v23.2q0 0.4-0.2 0.6 0 0.2-0.5 0.2h-2.2q-0.4 0-0.7-0.6l-6-12.3q-1.3-3-1.8-4.9 0 0 0 1.6 0.1 1.5 0.1 2.4v13q0 0.8-0.6 0.8h-2.4q-0.7 0-0.7-0.8v-23.2q0-0.7 0.7-0.7h2.5q0.5 0 0.9 0.5l5.2 11.2q1.2 2.4 1.9 5h0.2q0-0.5-0.2-2.2 0-1.9 0-2.3v-11.5q0-0.7 0.7-0.7h2.4q0.7 0 0.7 0.7z"/>
						<path id="&lt;Compound Path&gt;" fill-rule="evenodd" class="s13" d="m440 360.7l-1.4 5.8q-0.1 0.8-0.6 0.8h-3.3q-0.6 0-0.6-0.4 0-0.2 0.1-0.6l6.3-23.2q0.2-0.5 0.9-0.5h3.2q0.5 0 0.7 0.5l6.4 23.2q0 0.4 0 0.6 0 0.4-0.5 0.4h-3.7q-0.4 0-0.5-0.8l-1.4-5.8zm4.8-3.2l-1.4-6.3q-0.3-1.7-0.7-5h-0.1q-0.2 2.8-0.7 5l-1.4 6.3z"/>
						<path id="&lt;Compound Path&gt;" class="s13" d="m461.8 346.9v19.6q0 0.8-0.7 0.8h-3.1q-0.6 0-0.6-0.8v-19.6h-4.3q-0.3 0-0.3-0.2-0.2-0.2-0.2-0.4v-3.2q0-0.3 0.2-0.3 0.1-0.2 0.3-0.2h13.4q0.5 0 0.7 0.2 0.2 0 0.2 0.1 0 0.2-0.2 0.6l-0.7 2.8q-0.1 0.6-0.6 0.6z"/>
						<path id="&lt;Compound Path&gt;" class="s13" d="m481.3 364.1v2.4q0 0.8-0.7 0.8h-10.5q-0.7 0-0.7-0.8v-23.2q0-0.7 0.7-0.7h10.5q0.6 0 0.7 0.2 0.2 0 0.2 0.1 0 0.2-0.2 0.6l-0.5 2.5q-0.2 0.5-0.8 0.5h-6.3v5.9h5.6q0.5 0 0.5 0.2 0.2 0 0.2 0.5v2.5q0 0.7-0.7 0.7h-5.6v7h6.9q0.6 0 0.7 0.2 0 0 0 0.6z"/>
					</g>
					<path id="&lt;Path&gt;" class="s17" d="m486.8 343.3c0 2.7-2.1 4.7-4.5 4.7h-111.3c-2.4 0-4.3-2-4.3-4.7 0-2.6 1.9-4.9 4.3-4.9h111.3c2.4 0 4.5 2.3 4.5 4.9z"/>
				</g>
				<g id="&lt;Group&gt;">
					<path id="&lt;Path&gt;" class="s14" d="m303.1 543.3c2.4 4.5 3.4-4.3 4.1-12.1 2-19.2 46.9-29.2 52 3.8-0.6 4 4.1 5.7 5 1 3.9-20.2 50.1-33.8 40.6 14.3-1.7 8.8 4.9 9.8 6.6 3.2 5.1-18.5 26.7-156.8 32-182.8 6-29.6 34-20.8 31.6 3.2-2.2 23.3-17.5 161.3-24.5 215.6-4.7 36.5 6.7 46.2 6.7 46.2h-0.2c4.9 0.9 8 1.7 8 1.7 0 0 34.4-77.5 79.4-58.5 11.4 4.7 11.2 13.2-5.4 35.5-30.1 39.9-71.8 89.5-92.7 131.3-16.8 33.2-49.5 55.6-49.5 55.6l-93.7-10.3c0 0-32.6-59.4-36.9-83.9-7.1-40.3 5.1-107.4 6.5-135.3 1.3-27.9 23.4-46.8 30.4-28.5z"/>
					<path id="&lt;Path&gt;" class="s14" d="m294.1 869l9.9-100.8 98.9 11.8-8.6 89z"/>
					<path id="&lt;Path&gt;" class="s6" d="m277.6 869l13.6-83.9 131.5 15.9-6.7 68z"/>
				</g>
				<path id="&lt;Path&gt;" class="s14" d="m377.4 349c-12 4.3-36 9.8-45 12.2-9.2 2.7-11.4-43.9-0.2-47.1 11.2-3 26.9-3 36.6-4.5 16.5-2.3 24.4 33.9 8.6 39.4z"/>
			</g>
			<g id="&lt;Group&gt;">
				<path id="&lt;Path&gt;" class="s18" d="m426.7 210.4v109.9c0 0-42.6-24.3-55.7-55.8-13.6-32.2-6.5-58.4 18.3-66.3 21.8-7.2 37.4 12.2 37.4 12.2z"/>
				<path id="&lt;Path&gt;" class="s19" d="m464 198.2c25 7.9 32 34.1 18.5 66.3-13.2 31.5-55.8 55.8-55.8 55.8v-109.9c0 0 15.5-19.4 37.3-12.2z"/>
			</g>
		</g>
	</g>
</svg>